<svg xmlns="http://www.w3.org/2000/svg" xmlns:xlink="http://www.w3.org/1999/xlink" width="50" height="36" viewBox="0 0 50 36">
    <defs>
        <path id="a" d="M0 .18h8.927v18.602H0z"/>
    </defs>
    <g fill="none" fill-rule="evenodd">
        <path fill="#FEFEFE" d="M33.92 19.111c0-.357-.02-.715.005-1.07.075-1.108-.987-1.846-1.857-1.87-.643-.018-1.286 0-1.929-.007-.171-.002-.21.062-.173.216.247 1.036.288 2.09.27 3.149-.002.153-.015.307-.02.461-.018.518-.247.81-.764.922-.86.187-1.72.117-2.566-.087-1.23-.296-2.175-.964-2.735-2.102-.42-.858-.556-1.774-.558-2.713-.005-2.293 1.549-4.112 3.855-4.523.881-.157 1.765-.12 2.642.013 1.025.153 2.013.428 2.869 1.032a.776.776 0 0 0 .5.138c.144-.004.205-.062.204-.204-.003-.314 0-.629 0-.944.005-1.077-.465-1.91-1.35-2.532-.85-.595-1.825-.823-2.844-.874-1.587-.079-3.137.127-4.62.713-1.978.783-3.493 2.072-4.415 3.98-.75 1.551-.938 3.192-.684 4.875.399 2.643 1.872 4.53 4.303 5.71a8.989 8.989 0 0 0 3.417.878c1.278.076 2.543.01 3.772-.374 1.438-.45 2.381-1.35 2.615-2.86.099-.638.058-1.284.064-1.927"/>
        <g transform="translate(0 4.5)">
            <mask id="b" fill="#fff">
                <use xlink:href="#a"/>
            </mask>
            <path fill="#FEFEFE" d="M.002 8.706c0 1.498.002 2.996-.002 4.494a8.065 8.065 0 0 0 .136 1.572c.372 1.913 1.448 3.202 3.357 3.745.633.18 1.281.238 1.937.261.631.022 1.252-.031 1.849-.238.917-.317 1.507-.928 1.618-1.92.056-.496.018-.997.016-1.496 0-.151-.086-.177-.208-.116a3.541 3.541 0 0 1-.58.235c-.783.228-1.587.287-2.394.229-1.053-.075-1.682-.622-1.924-1.629a3.464 3.464 0 0 1-.108-.803c0-1.976 0-3.952-.004-5.929 0-.165.046-.225.224-.23.966-.025 1.933-.011 2.898-.01.301.002.596-.052.878-.158.786-.297 1.273-.986 1.226-1.772-.02-.352-.002-.706-.004-1.06 0-.285-.01-.295-.292-.295-1.467-.001-2.933.002-4.4-.002-.606-.001-.523.077-.527-.534-.005-.867 0-1.733-.002-2.6 0-.104.014-.23-.132-.242-.55-.044-1.106-.08-1.593.254-1.213.835-1.975 1.929-1.97 3.46.004 1.594 0 3.19 0 4.784" mask="url(#b)"/>
        </g>
        <path fill="#FEFEFE" d="M23.216 27.373c0 .227-.005.454.001.68.032 1.084.31 2.096.872 3.008.472.768 1.074 1.424 1.746 2.009 1.688 1.468 3.625 2.37 5.787 2.75 1.453.257 2.904.25 4.345-.094 2.086-.498 3.928-1.494 5.53-2.974 1.17-1.079 1.94-2.394 2.186-4.019.12-.792.037-1.592.057-2.388.002-.075.031-.181-.064-.21-.094-.029-.124.076-.165.139a10.291 10.291 0 0 1-1.644 1.99c-3.068 2.853-6.678 3.792-10.686 3.2-1.826-.271-3.457-1.079-4.922-2.244-1.078-.857-2.003-1.873-2.826-2.993-.04-.054-.073-.15-.154-.122-.083.027-.06.123-.06.193-.003.358-.002.716-.003 1.075M11.607 13.643v4.865c0 .56.05 1.114.18 1.658.3 1.251.97 2.236 2.214 2.777 1.033.449 2.123.554 3.233.372.841-.138 1.301-.629 1.451-1.44.083-.44.058-.882.065-1.324.004-.246-.027-.287-.29-.285a9.27 9.27 0 0 1-1.349-.075c-.878-.122-1.345-.558-1.497-1.397a3.18 3.18 0 0 1-.038-.576V11.06c0-.237-.012-.471-.042-.705-.155-1.25-.885-2.002-2.142-2.2-.484-.074-.973-.052-1.46-.052-.322.001-.325.003-.325.31v5.23zM49.104 5.367c.01-.498.004-.99-.13-1.479-.246-.893-.81-1.534-1.486-2.077C45.74.41 43.753-.164 41.57.041c-1.771.165-3.326.891-4.662 2.118a3.607 3.607 0 0 0-1.122 1.999c-.129.642-.04 1.294-.062 1.941-.003.062-.029.152.036.178.084.035.108-.07.145-.121a7.12 7.12 0 0 1 2.277-2.006c1.515-.853 3.141-1.175 4.85-1.097 1.61.073 3.061.612 4.352 1.623a9.916 9.916 0 0 1 1.528 1.515c.039.047.074.127.143.105.075-.024.047-.11.048-.171.003-.253.001-.505.001-.758M13.83 7.2c1.251 0 2.245-1.005 2.241-2.272A2.236 2.236 0 0 0 13.828 2.7c-1.21 0-2.218 1.002-2.22 2.208-.004 1.278.979 2.292 2.221 2.292M45.7 18.222c-.552 1.206-1.687 1.865-2.957 1.74-.71-.069-1.366-.257-1.919-.753-.52-.468-.84-1.07-1.018-1.75-.405-1.557-.475-3.125.049-4.664.554-1.628 1.815-2.375 3.446-2.117 1.417.224 2.223 1.142 2.617 2.525.215.752.298 1.525.288 2.195.005 1.053-.112 1.966-.506 2.824m3.703-6.496c-.784-2.022-2.12-3.459-4.12-4.158-1.108-.387-2.246-.445-3.397-.284-2.284.318-4.017 1.502-5.13 3.631-.753 1.44-1.039 3-1.04 4.842-.016.73.11 1.656.388 2.554.613 1.983 1.75 3.512 3.571 4.417 1.295.643 2.668.78 4.077.598 2.395-.307 4.18-1.556 5.3-3.81.571-1.152.833-2.396.92-3.688.098-1.414-.059-2.788-.569-4.102"/>
    </g>
</svg>
